<svg id="S1vUYVtgX" data-name="Capa 1" xmlns="http://www.w3.org/2000/svg" viewBox="0 0 72 77"><style>@-webkit-keyframes BJGDIK4tgm_Animation{0%{opacity: 1;}25%{opacity: 1;}50%{opacity: 0;}75%{opacity: 1;}100%{opacity: 0;}}@keyframes BJGDIK4tgm_Animation{0%{opacity: 1;}25%{opacity: 1;}50%{opacity: 0;}75%{opacity: 1;}100%{opacity: 0;}}@-webkit-keyframes BJGDIK4tgm_SyPuYEFgm_Animation{0%{-webkit-transform: rotate(0deg);transform: rotate(0deg);}5%{-webkit-transform: rotate(2deg);transform: rotate(2deg);}50%{-webkit-transform: rotate(15deg);transform: rotate(15deg);}55.00%{-webkit-transform: rotate(-2deg);transform: rotate(-2deg);}100%{-webkit-transform: rotate(-15deg);transform: rotate(-15deg);}}@keyframes BJGDIK4tgm_SyPuYEFgm_Animation{0%{-webkit-transform: rotate(0deg);transform: rotate(0deg);}5%{-webkit-transform: rotate(2deg);transform: rotate(2deg);}50%{-webkit-transform: rotate(15deg);transform: rotate(15deg);}55.00%{-webkit-transform: rotate(-2deg);transform: rotate(-2deg);}100%{-webkit-transform: rotate(-15deg);transform: rotate(-15deg);}}@-webkit-keyframes BJGDIK4tgm_rJLdKEKxX_Animation{0%{-webkit-transform: translate(0px, 0px);transform: translate(0px, 0px);}5%{-webkit-transform: translate(0px, -1px);transform: translate(0px, -1px);}50%{-webkit-transform: translate(-10px, 20px);transform: translate(-10px, 20px);}55.00%{-webkit-transform: translate(0px, 1px);transform: translate(0px, 1px);}100%{-webkit-transform: translate(10px, 20px);transform: translate(10px, 20px);}}@keyframes BJGDIK4tgm_rJLdKEKxX_Animation{0%{-webkit-transform: translate(0px, 0px);transform: translate(0px, 0px);}5%{-webkit-transform: translate(0px, -1px);transform: translate(0px, -1px);}50%{-webkit-transform: translate(-10px, 20px);transform: translate(-10px, 20px);}55.00%{-webkit-transform: translate(0px, 1px);transform: translate(0px, 1px);}100%{-webkit-transform: translate(10px, 20px);transform: translate(10px, 20px);}}#S1vUYVtgX *{-webkit-animation-duration: 2s;animation-duration: 2s;-webkit-animation-iteration-count: infinite;animation-iteration-count: infinite;-webkit-animation-play-state: paused;animation-play-state: paused;-webkit-animation-timing-function: cubic-bezier(0, 0, 1, 1);animation-timing-function: cubic-bezier(0, 0, 1, 1);}#ryewUFNFeX{fill: #25e8be;fill-rule: evenodd;}#r1ZP8KNYe7{fill: #25e8be;}#BJGDIK4tgm{fill: #25e8be;-webkit-animation-name: BJGDIK4tgm_Animation;animation-name: BJGDIK4tgm_Animation;-webkit-transform-origin: 50% 50%;transform-origin: 50% 50%;transform-box: fill-box;}#BJGDIK4tgm_rJLdKEKxX{-webkit-animation-name: BJGDIK4tgm_rJLdKEKxX_Animation;animation-name: BJGDIK4tgm_rJLdKEKxX_Animation;-webkit-transform-origin: 50% 50%;transform-origin: 50% 50%;transform-box: fill-box;}#BJGDIK4tgm_SyPuYEFgm{-webkit-animation-name: BJGDIK4tgm_SyPuYEFgm_Animation;animation-name: BJGDIK4tgm_SyPuYEFgm_Animation;-webkit-transform-origin: 50% 50%;transform-origin: 50% 50%;transform-box: fill-box;}#S1vUYVtgX:hover *{-webkit-animation-play-state: running;animation-play-state: running;}</style><defs/><title>Mesa de trabajo 8dark</title><path d="M62.4,0H9.6A9.61,9.61,0,0,0,0,9.62v4.82H72V9.62A9.61,9.61,0,0,0,62.4,0Z" id="ryewUFNFeX"/><path d="M0,19.25V67.38A9.61,9.61,0,0,0,9.6,77H62.4A9.61,9.61,0,0,0,72,67.38V19.25ZM16.8,62.56A7.22,7.22,0,1,1,24,55.34,7.21,7.21,0,0,1,16.8,62.56Zm0-19.25A7.22,7.22,0,1,1,24,36.09,7.21,7.21,0,0,1,16.8,43.31ZM36,62.56a7.22,7.22,0,1,1,7.2-7.22A7.21,7.21,0,0,1,36,62.56Zm0-19.25a7.22,7.22,0,1,1,7.2-7.22A7.21,7.21,0,0,1,36,43.31ZM55.2,62.56a7.22,7.22,0,1,1,7.2-7.22A7.21,7.21,0,0,1,55.2,62.56Zm0-19.25a7.22,7.22,0,1,1,7.2-7.22A7.21,7.21,0,0,1,55.2,43.31Zm-2.4-9.62h4.8V38.5H52.8Zm0,19.25h4.8v4.81H52.8ZM33.6,33.69h4.8V38.5H33.6ZM14.4,52.94h4.8v4.81H14.4Zm19.2,0h4.8v4.81H33.6ZM14.4,33.69h4.8V38.5H14.4Z" id="r1ZP8KNYe7"/><g id="BJGDIK4tgm_rJLdKEKxX" data-animator-group="true" data-animator-type="0"><g id="BJGDIK4tgm_SyPuYEFgm" data-animator-group="true" data-animator-type="1"><path d="M0,19.25V67.38A9.61,9.61,0,0,0,9.6,77H62.4A9.61,9.61,0,0,0,72,67.38V19.25ZM16.8,62.56A7.22,7.22,0,1,1,24,55.34,7.21,7.21,0,0,1,16.8,62.56Zm0-19.25A7.22,7.22,0,1,1,24,36.09,7.21,7.21,0,0,1,16.8,43.31ZM36,62.56a7.22,7.22,0,1,1,7.2-7.22A7.21,7.21,0,0,1,36,62.56Zm0-19.25a7.22,7.22,0,1,1,7.2-7.22A7.21,7.21,0,0,1,36,43.31ZM55.2,62.56a7.22,7.22,0,1,1,7.2-7.22A7.21,7.21,0,0,1,55.2,62.56Zm0-19.25a7.22,7.22,0,1,1,7.2-7.22A7.21,7.21,0,0,1,55.2,43.31Zm-2.4-9.62h4.8V38.5H52.8Zm0,19.25h4.8v4.81H52.8ZM33.6,33.69h4.8V38.5H33.6ZM14.4,52.94h4.8v4.81H14.4Zm19.2,0h4.8v4.81H33.6ZM14.4,33.69h4.8V38.5H14.4Z" id="BJGDIK4tgm"/></g></g><script>(function(){var a=document.querySelector('#S1vUYVtgX'),b=a.querySelectorAll('style'),c=function(d){b.forEach(function(f){var g=f.textContent;g&amp;&amp;(f.textContent=g.replace(/transform-box:[^;\r\n]*/gi,'transform-box: '+d))})};c('initial'),window.requestAnimationFrame(function(){return c('fill-box')})})();</script></svg>