<?xml version="1.0" encoding="UTF-8"?>
<svg width="130px" height="58px" viewBox="0 0 130 58" version="1.1" xmlns="http://www.w3.org/2000/svg" xmlns:xlink="http://www.w3.org/1999/xlink">
    <!-- Generator: Sketch 50.2 (55047) - http://www.bohemiancoding.com/sketch -->
    <title>Fill 1</title>
    <desc>Created with Sketch.</desc>
    <defs></defs>
    <g id="Page-1" stroke="none" stroke-width="1" fill="none" fill-rule="evenodd">
        <path d="M58.419833,7.57027498 C59.4220925,6.81775476 60.1558896,5.91921912 59.7984821,4.59723875 C59.4573451,3.33501655 58.4382729,2.7187774 57.237514,2.45108246 C55.8404251,2.13958289 54.4512002,2.35941722 53.4394497,3.36746443 C52.432038,4.37091485 51.4864539,5.51118713 50.8096034,6.75177742 C49.7243647,8.74083194 50.4315867,9.73995598 52.6771793,9.70534492 C54.5303831,9.67695303 56.7117074,8.85277709 58.419833,7.57027498 Z M96.8755731,0.40064738 C96.0056466,-0.202071833 94.852072,-0.127712127 94.1182749,0.643736017 C91.6134399,3.27579919 89.1782965,5.97600289 86.797388,8.72001122 C86.4676403,9.09992172 86.3201216,10.1725943 86.5658053,10.3916174 C86.9584654,10.7415136 87.7494802,10.6804035 88.3767059,10.7179889 C88.6207626,10.73232 88.907936,10.5876566 89.1235194,10.4397484 C91.8696994,8.55587907 94.638658,6.70121282 97.3202986,4.72865263 C97.8997976,4.30250392 98.1560571,3.43939054 98.7130487,2.52895735 C98.043791,1.72776532 97.5814392,0.889528643 96.8755731,0.40064738 Z M36.2871462,19.4929749 C36.847663,23.1295701 37.2641864,26.7961796 38.0134404,30.393567 C38.6347003,33.3757967 39.9593857,36.09601 42.3668693,38.154557 C43.69508,39.2905029 45.2158242,39.6528375 46.9120182,39.3894689 C49.2056086,39.0330831 50.2846103,37.0048208 49.1961175,34.9838592 C48.7961358,34.2410733 48.2448388,33.5561528 47.6634416,32.9372097 C45.4051038,30.5328224 43.6384046,27.803686 42.693634,24.665436 C41.9742092,22.2756503 41.5669057,19.7823018 41.1628563,17.3116668 C40.8827335,15.5978784 40.2254075,14.6111927 39.0365803,14.6563493 C37.4423478,14.7171891 36.629639,15.6246479 36.5829971,17.4190152 C36.5653708,18.0942013 36.5800142,18.7701986 36.5800142,19.4456551 C36.4823915,19.4616087 36.3847688,19.4770214 36.2871462,19.4929749 Z M60.7841999,24.4799424 C60.6182414,22.2864663 60.4972977,20.0691951 60.0650462,17.9206052 C59.5281215,15.2509565 57.4563515,14.1950487 54.5669916,14.8264302 C52.2066923,15.342081 50.8828204,17.3095036 51.3335117,19.7939289 C51.7587127,22.1353133 52.251436,24.4664224 52.7837507,26.7861748 C53.8269575,31.3329328 55.3704804,35.8193919 55.8770336,40.4210408 C56.5332749,46.3819852 56.7222832,52.5316681 50.7870959,56.6019831 C50.072281,57.0924868 50.2387819,57.8823221 51.0555583,57.9631713 C52.0288021,58.0599742 53.1465817,57.9775025 54.0192199,57.5770417 C56.8456674,56.2793972 58.4401711,53.8295829 59.567713,51.0509635 C61.2384165,46.9325174 61.5315557,42.5831507 61.6462624,37.0853996 C61.4130526,33.6313237 61.1294045,29.0534699 60.7841999,24.4799424 Z M107.806329,29.3471231 C107.860022,28.7508935 107.870055,28.1470927 107.974186,27.5597862 C108.508942,24.5486237 109.113389,21.548818 109.586859,18.5287324 C109.710785,17.7375451 109.692616,16.7541042 109.322193,16.0913564 C108.569685,14.7453106 105.642089,14.2575109 103.698584,14.9467578 C102.285767,15.447807 101.648237,16.6229607 101.705997,18.5541499 C101.798739,21.6586 101.721183,24.7773812 102.001577,27.8645258 C102.280615,30.9349056 102.616329,34.0588244 103.469985,37.002928 C104.37896,40.138474 107.100734,40.52217 109.021732,37.8779389 C110.812294,35.4129823 112.233518,32.6819531 113.838055,30.0807154 C114.616053,28.8195748 115.309445,27.4729881 116.272656,26.3657045 C118.463471,23.8466681 121.335747,23.9256246 123.44521,26.5357854 C124.284223,27.5741173 124.857485,28.8247124 125.560639,29.9736374 C126.169696,30.9678943 126.682487,32.0530052 127.453977,32.9031394 C127.830638,33.3179314 128.855947,33.5961719 129.300944,33.3717408 C129.732382,33.1540696 130.109585,32.1306097 129.970744,31.6022502 C129.014584,27.9621398 127.610716,24.5013039 124.999309,21.6864511 C123.578899,20.1551819 121.851249,19.1906689 119.662061,19.1398339 C115.542926,19.0446535 112.550249,20.8003538 110.641997,24.418021 C109.76963,26.0717809 108.92655,27.7412239 108.070182,29.4033661 L107.806329,29.3471231 Z M75.3109959,38.2840781 C80.1568769,40.0852054 84.96398,40.2936829 89.3578138,37.0553854 C93.2751947,34.1677952 96.0739825,30.370583 97.5291026,25.7321598 C98.0833825,23.9651028 98.2775431,22.0255313 98.2889324,20.1624827 C98.3068299,17.2102672 96.643448,15.3350506 93.8530667,14.896734 C90.7299547,14.4059599 87.6296213,14.631743 84.6418252,15.6806204 C83.6406504,16.0321391 82.6896429,16.6124152 81.8357157,17.2486638 C81.5092221,17.4917525 81.3817703,18.1996569 81.4368186,18.663391 C81.4612243,18.8718686 82.1616669,19.1471347 82.5461918,19.1341556 C83.2067719,19.1114421 83.8773854,18.9405499 84.5130175,18.7361283 C86.9880234,17.9403443 89.4882485,17.368721 92.0909774,17.9671138 C94.6085577,18.5460379 95.6748142,20.3582515 94.9800662,22.8264529 C94.1201731,25.8816904 92.5172631,28.5299775 90.311533,30.7888902 C87.1219834,34.0550389 83.2970729,35.3959471 78.8487331,33.9179466 C74.633603,32.5172801 72.1580548,29.4774554 71.4022926,25.1067271 C70.9757357,22.6404185 71.6986859,21.0996854 73.9757347,20.0421552 C75.7248076,19.2296064 77.610281,18.712874 79.4179275,18.020112 C79.9475305,17.816772 80.5327242,17.5604338 80.8928434,17.1529426 C81.7603293,16.1722057 81.5696939,13.6034159 80.6403803,12.2952259 C79.7606916,11.0570692 78.6019647,10.7047394 76.9174312,11.2233645 C73.3669489,12.316317 70.3989485,14.3005043 68.0785118,17.1894465 C66.3147955,19.3853562 65.1658309,21.8435528 65.2761987,24.7479077 C65.4736135,31.1003898 69.0007748,35.9389082 75.3109959,38.2840781 Z M14.9161873,11.2758219 C14.87524,11.1573872 14.8345639,11.038682 14.7936166,10.9199769 C12.817571,11.5986782 10.7235647,12.0534892 8.895309,13.0123238 C6.5781264,14.2272262 5.36868996,16.3568882 5.69925117,19.0597959 C6.08025077,22.1726283 7.97521531,24.481024 10.7501398,25.040209 C14.7279925,25.8419418 18.2605774,24.7627797 21.1564455,21.9314325 C22.6346154,20.4864206 23.1021196,18.6447335 22.5909564,16.5924056 C21.7733665,13.3097626 18.8194672,11.2533788 14.9161873,11.2758219 Z M15.3446424,28.2904041 C13.1917913,28.2904041 10.8965738,28.472653 8.64040535,28.2539002 C3.29041173,27.7360863 -0.120144795,23.9956579 0.00323941585,18.9848954 C0.073202331,16.1400282 1.58716727,14.0290238 3.75710234,12.4079822 C9.35006795,8.22977796 15.6079524,7.41398439 22.2590393,9.10019211 C23.1444227,9.32462323 23.7350399,9.22619802 24.4837516,8.76462704 C27.6272016,6.82559633 30.8018367,4.93550781 34.0057585,3.09787669 C34.687219,2.70715024 35.525147,2.49705027 36.3148059,2.40241065 C38.2970885,2.16445959 39.8818299,3.4239778 40.0467037,5.25133376 C40.2167299,7.13682549 38.9603803,8.47881538 36.9748437,8.84277233 C34.5426832,9.28866017 32.1208274,9.83432521 29.7396478,10.498425 C28.693187,10.7904558 27.7584499,11.4813251 26.7656815,11.9948126 C29.6997852,17.0420791 28.0768082,21.4520152 21.7438085,26.1996796 C23.2743151,26.3267671 24.8547177,26.3183847 26.3781737,26.6085228 C32.6338888,27.8004412 36.3807012,32.3609896 36.5086954,38.7978361 C36.6773657,47.2824136 29.9140127,54.9541721 21.4034851,55.8713652 C16.7265455,56.3753888 12.2101411,55.8037655 8.03487361,53.4923954 C5.55173247,52.1176873 3.72347675,50.0888841 2.50970153,47.5376702 C1.54459294,45.5091375 2.41723116,44.0546616 4.65902736,44.1668772 C5.82805887,44.2258242 7.05918923,44.6192546 8.09588778,45.17195 C8.76351839,45.527795 9.54070333,46.438769 9.55426204,47.1155775 C9.59819224,49.3071608 10.946741,50.4190412 12.6193428,51.1704798 C16.7992202,53.0486708 20.9595731,53.1297905 24.7956018,50.2973617 C28.845858,47.3067496 30.2283035,43.245628 29.1484882,38.3749321 C27.7272648,31.9648551 23.0354107,29.2173316 16.6639043,30.996827 C15.7964184,31.2391044 14.9362542,31.5387064 14.0516843,31.6771507 C13.6677018,31.7374496 13.0377644,31.5716951 12.872077,31.2969698 C12.7166943,31.03955 12.8967539,30.373287 13.1568098,30.1142449 C13.8729806,29.4012029 14.708468,28.8076772 15.3446424,28.2904041 Z" id="Fill-1" fill="#FFFFFF"></path>
    </g>
</svg>