<?xml version="1.0" encoding="UTF-8"?>
<svg width="136px" height="40px" viewBox="0 0 136 40" version="1.1" xmlns="http://www.w3.org/2000/svg" xmlns:xlink="http://www.w3.org/1999/xlink">
    <!-- Generator: Sketch 50.2 (55047) - http://www.bohemiancoding.com/sketch -->
    <title>Group 22</title>
    <desc>Created with Sketch.</desc>
    <defs>
        <linearGradient x1="91.4895098%" y1="4.9604069%" x2="-38.3173161%" y2="71.909245%" id="linearGradient-1">
            <stop stop-color="#00A0FF" offset="0%"></stop>
            <stop stop-color="#00A1FF" offset="0.66%"></stop>
            <stop stop-color="#00BEFF" offset="26.01%"></stop>
            <stop stop-color="#00D2FF" offset="51.22%"></stop>
            <stop stop-color="#00DFFF" offset="76.04%"></stop>
            <stop stop-color="#00E3FF" offset="100%"></stop>
        </linearGradient>
        <linearGradient x1="107.585647%" y1="50.0163647%" x2="-130.492257%" y2="50.0163647%" id="linearGradient-2">
            <stop stop-color="#FFE000" offset="0%"></stop>
            <stop stop-color="#FFBD00" offset="40.87%"></stop>
            <stop stop-color="#FFA500" offset="77.54%"></stop>
            <stop stop-color="#FF9C00" offset="100%"></stop>
        </linearGradient>
        <linearGradient x1="86.237735%" y1="117.851014%" x2="-50.1313759%" y2="294.785269%" id="linearGradient-3">
            <stop stop-color="#FF3A44" offset="0%"></stop>
            <stop stop-color="#C31162" offset="100%"></stop>
        </linearGradient>
        <linearGradient x1="-18.8012883%" y1="-154.171052%" x2="42.0936259%" y2="-75.1365546%" id="linearGradient-4">
            <stop stop-color="#32A071" offset="0%"></stop>
            <stop stop-color="#2DA771" offset="6.85%"></stop>
            <stop stop-color="#15CF74" offset="47.62%"></stop>
            <stop stop-color="#06E775" offset="80.09%"></stop>
            <stop stop-color="#00F076" offset="100%"></stop>
        </linearGradient>
    </defs>
    <g id="Page-1" stroke="none" stroke-width="1" fill="none" fill-rule="evenodd">
        <g id="Group-22" fill-rule="nonzero">
            <path d="M130.539349,0.3137625 L5.24031191,0.3137625 C2.48498608,0.3137625 0.228350412,2.54414285 0.228350412,5.26741125 L0.228350412,34.9893037 C0.228350412,37.7125722 2.48498608,39.9429525 5.24031191,39.9429525 L130.539349,39.9429525 C133.294675,39.9429525 135.551311,37.7125722 135.551311,34.9893037 L135.551311,5.26741125 C135.551311,2.54414285 133.294675,0.3137625 130.539349,0.3137625 Z" id="path14" fill="#FFFFFF" transform="translate(67.889831, 20.128357) scale(1, -1) translate(-67.889831, -20.128357) "></path>
            <path d="M130.539349,39.1491303 C132.859888,39.1491303 134.748144,37.2828431 134.748144,34.9893037 L134.748144,5.26741125 C134.748144,2.97387188 132.859888,1.10758471 130.539349,1.10758471 L5.24031191,1.10758471 C2.91977374,1.10758471 1.03151724,2.97387188 1.03151724,5.26741125 L1.03151724,34.9893037 C1.03151724,37.2828431 2.91977374,39.1491303 5.24031191,39.1491303 L130.539349,39.1491303 Z M130.539349,39.9429525 L5.24031191,39.9429525 C2.48498608,39.9429525 0.228350412,37.7125722 0.228350412,34.9893037 L0.228350412,5.26741125 C0.228350412,2.54414285 2.48498608,0.3137625 5.24031191,0.3137625 L130.539349,0.3137625 C133.294675,0.3137625 135.551311,2.54414285 135.551311,5.26741125 L135.551311,34.9893037 C135.551311,37.7125722 133.294675,39.9429525 130.539349,39.9429525 Z" id="path16" fill="#A6A6A6" transform="translate(67.889831, 20.128357) scale(1, -1) translate(-67.889831, -20.128357) "></path>
            <path d="M47.7592873,10.4625504 C47.7592873,11.2898097 47.5086892,11.9523602 47.015011,12.4464867 C46.4474064,13.0322557 45.7081421,13.3269978 44.80223,13.3269978 C43.9364137,13.3269978 43.1971493,13.027302 42.590702,12.4365794 C41.9830017,11.8371879 41.679778,11.1015711 41.679778,10.22106 C41.679778,9.34054893 41.9830017,8.6049321 42.590702,8.01049425 C43.1971493,7.41481798 43.9364137,7.11512223 44.80223,7.11512223 C45.2332587,7.11512223 45.6442395,7.2030495 46.0364255,7.36651991 C46.4273585,7.53122873 46.7456181,7.75414292 46.9761683,8.02907043 L46.4524183,8.55168037 C46.0502084,8.08232215 45.5026516,7.85073907 44.80223,7.85073907 C44.1707229,7.85073907 43.6231661,8.06869962 43.1583066,8.50833594 C42.6984592,8.94921068 42.4679089,9.5201187 42.4679089,10.22106 C42.4679089,10.9220013 42.6984592,11.497863 43.1583066,11.9387377 C43.6231661,12.3734204 44.1707229,12.5963346 44.80223,12.5963346 C45.4725799,12.5963346 46.0364255,12.3734204 46.4812371,11.9337841 C46.7744369,11.6427572 46.9410846,11.2415116 46.9849392,10.728809 L44.80223,10.728809 L44.80223,10.0130068 L47.7141796,10.0130068 C47.7492634,10.1678083 47.7592873,10.3176562 47.7592873,10.4625504 Z" id="path20" stroke="#000000" stroke-width="0.625" fill="#000000" transform="translate(44.719533, 10.221060) scale(-1, -1) rotate(-180.000000) translate(-44.719533, -10.221060) "></path>
            <polygon id="path24" stroke="#000000" stroke-width="0.625" fill="#000000" transform="translate(50.624250, 10.221060) scale(-1, -1) rotate(-180.000000) translate(-50.624250, -10.221060) " points="52.3790628 7.98077235 49.6437848 7.98077235 49.6437848 9.86315888 52.1096699 9.86315888 52.1096699 10.5789611 49.6437848 10.5789611 49.6437848 12.4613476 52.3790628 12.4613476 52.3790628 13.1907724 48.8694368 13.1907724 48.8694368 7.25134757 52.3790628 7.25134757"></polygon>
            <polygon id="path28" stroke="#000000" stroke-width="0.625" fill="#000000" transform="translate(55.252796, 10.221060) scale(-1, -1) rotate(-180.000000) translate(-55.252796, -10.221060) " points="55.6393438 13.1907724 54.8649957 13.1907724 54.8649957 7.98077235 53.1872416 7.98077235 53.1872416 7.25134757 57.3183509 7.25134757 57.3183509 7.98077235 55.6393438 7.98077235 55.6393438 13.1907724"></polygon>
            <polygon id="path32" stroke="#000000" stroke-width="0.625" fill="#000000" transform="translate(60.934481, 10.221060) scale(-1, -1) rotate(-180.000000) translate(-60.934481, -10.221060) " points="60.3079859 13.1907724 60.3079859 7.25134757 61.081081 7.25134757 61.081081 13.1907724"></polygon>
            <polygon id="path36" stroke="#000000" stroke-width="0.625" fill="#000000" transform="translate(64.123968, 10.221060) scale(-1, -1) rotate(-180.000000) translate(-64.123968, -10.221060) " points="64.5080096 13.1907724 63.7399265 13.1907724 63.7399265 7.98077235 62.0559075 7.98077235 62.0559075 7.25134757 66.1920287 7.25134757 66.1920287 7.98077235 64.5080096 7.98077235"></polygon>
            <path d="M74.0131946,12.4266721 C73.4205302,13.027302 72.6862778,13.3269978 71.8104375,13.3269978 C70.9295853,13.3269978 70.195333,13.027302 69.6026685,12.4266721 C69.011257,11.8272806 68.7168043,11.0916638 68.7168043,10.22106 C68.7168043,9.35045623 69.011257,8.61483939 69.6026685,8.01544789 C70.195333,7.41481798 70.9295853,7.11512223 71.8104375,7.11512223 C72.6812659,7.11512223 73.4155182,7.41481798 74.0081827,8.02040154 C74.6046061,8.62474669 74.8990588,9.35540988 74.8990588,10.22106 C74.8990588,11.0916638 74.6046061,11.8272806 74.0131946,12.4266721 Z M70.1752851,11.9288304 C70.6213497,12.3734204 71.1638945,12.5963346 71.8104375,12.5963346 C72.4519686,12.5963346 72.9995254,12.3734204 73.440578,11.9288304 C73.8853896,11.4842404 74.1109279,10.9133324 74.1109279,10.22106 C74.1109279,9.52878759 73.8853896,8.95787957 73.440578,8.51328959 C72.9995254,8.06869962 72.4519686,7.84578542 71.8104375,7.84578542 C71.1638945,7.84578542 70.6213497,8.06869962 70.1752851,8.51328959 C69.7304735,8.95787957 69.5049353,9.52878759 69.5049353,10.22106 C69.5049353,10.9133324 69.7304735,11.4842404 70.1752851,11.9288304 Z" id="path40" stroke="#000000" stroke-width="0.625" fill="#000000" transform="translate(71.807932, 10.221060) scale(-1, -1) rotate(-180.000000) translate(-71.807932, -10.221060) "></path>
            <polygon id="path44" stroke="#000000" stroke-width="0.625" fill="#000000" transform="translate(78.302807, 10.221060) scale(-1, -1) rotate(-180.000000) translate(-78.302807, -10.221060) " points="75.9854015 13.1907724 75.9854015 7.25134757 76.9251443 7.25134757 79.8471178 11.870625 79.8809486 11.870625 79.8471178 10.728809 79.8471178 7.25134757 80.6202129 7.25134757 80.6202129 13.1907724 79.8132871 13.1907724 76.7534846 8.34362712 76.7196538 8.34362712 76.7534846 9.49039681 76.7534846 13.1907724 75.9854015 13.1907724"></polygon>
            <path d="M68.5263498,29.4127337 C66.1719809,29.4127337 64.2486406,27.6418042 64.2486406,25.198417 C64.2486406,22.7748443 66.1719809,20.9853387 68.5263498,20.9853387 C70.8857306,20.9853387 72.8090709,22.7748443 72.8090709,25.198417 C72.8090709,27.6418042 70.8857306,29.4127337 68.5263498,29.4127337 Z M68.5263498,22.6448111 C67.2345167,22.6448111 66.1231142,23.6986998 66.1231142,25.198417 C66.1231142,26.7179487 67.2345167,27.7532613 68.5263498,27.7532613 C69.8181828,27.7532613 70.9345973,26.7179487 70.9345973,25.198417 C70.9345973,23.6986998 69.8181828,22.6448111 68.5263498,22.6448111 Z M59.1928245,29.4127337 C56.8334436,29.4127337 54.9151153,27.6418042 54.9151153,25.198417 C54.9151153,22.7748443 56.8334436,20.9853387 59.1928245,20.9853387 C61.5509524,20.9853387 63.4705336,22.7748443 63.4705336,25.198417 C63.4705336,27.6418042 61.5509524,29.4127337 59.1928245,29.4127337 Z M59.1928245,22.6448111 C57.8997384,22.6448111 56.784577,23.6986998 56.784577,25.198417 C56.784577,26.7179487 57.8997384,27.7532613 59.1928245,27.7532613 C60.4846575,27.7532613 61.59606,26.7179487 61.59606,25.198417 C61.59606,23.6986998 60.4846575,22.6448111 59.1928245,22.6448111 Z M48.0863178,28.1210698 L48.0863178,26.3303257 L52.4128936,26.3303257 C52.2863415,25.3296887 51.9480341,24.5940718 51.4292961,24.0813692 C50.797789,23.4621631 49.8141915,22.7748443 48.0863178,22.7748443 C45.4237132,22.7748443 43.3387373,24.8987212 43.3387373,27.5303471 C43.3387373,30.161973 45.4237132,32.2858499 48.0863178,32.2858499 C49.5260037,32.2858499 50.5735037,31.7298029 51.3465987,31.009047 L52.6233959,32.270989 C51.5420652,33.2914406 50.1036323,34.0753556 48.0863178,34.0753556 C44.4351038,34.0753556 41.3665304,31.1390803 41.3665304,27.5303471 C41.3665304,23.921614 44.4351038,20.9853387 48.0863178,20.9853387 C50.0597776,20.9853387 51.5420652,21.6243594 52.7073463,22.8231424 C53.9014461,24.0033492 54.2735843,25.6628216 54.2735843,27.0027836 C54.2735843,27.41889 54.2385005,27.8015594 54.175851,28.1210698 L48.0863178,28.1210698 Z M93.5022069,26.7328097 C93.1501166,27.6752414 92.063774,29.4127337 89.850993,29.4127337 C87.6582598,29.4127337 85.8326528,27.7049633 85.8326528,25.198417 C85.8326528,22.8380034 87.639465,20.9853387 90.0614953,20.9853387 C92.0199193,20.9853387 93.1501166,22.1655455 93.6149761,22.8528643 L92.1615072,23.8101569 C91.6765999,23.1092156 91.016274,22.6448111 90.0614953,22.6448111 C89.1129816,22.6448111 88.4326079,23.0745401 87.9965672,23.921614 L93.6989264,26.2535442 L93.5022069,26.7328097 Z M87.6883316,25.3296887 C87.639465,26.9544855 88.9651288,27.7866985 89.9148955,27.7866985 C90.6591718,27.7866985 91.2906789,27.41889 91.5011813,26.8925649 L87.6883316,25.3296887 Z M83.0535202,21.2416901 L84.9279938,21.2416901 L84.9279938,33.6258119 L83.0535202,33.6258119 L83.0535202,21.2416901 Z M79.9836938,28.4740172 L79.9210442,28.4740172 C79.5000395,28.9669053 78.6968726,29.4127337 77.6794445,29.4127337 C75.5443489,29.4127337 73.5921899,27.560069 73.5921899,25.1847945 C73.5921899,22.8231424 75.5443489,20.9853387 77.6794445,20.9853387 C78.6968726,20.9853387 79.5000395,21.4348824 79.9210442,21.9426314 L79.9836938,21.9426314 L79.9836938,21.3382862 C79.9836938,19.727112 79.1128655,18.8614618 77.7082632,18.8614618 C76.56303,18.8614618 75.8525845,19.6788139 75.5593847,20.3661326 L73.9292443,19.6936748 C74.3991157,18.576627 75.6433351,17.2019895 77.7082632,17.2019895 C79.9060084,17.2019895 81.7604341,18.4800309 81.7604341,21.5896839 L81.7604341,29.1563823 L79.9836938,29.1563823 L79.9836938,28.4740172 Z M77.8398272,22.6448111 C76.5479942,22.6448111 75.4666635,23.7135608 75.4666635,25.1847945 C75.4666635,26.6696507 76.5479942,27.7532613 77.8398272,27.7532613 C79.1128655,27.7532613 80.1165107,26.6696507 80.1165107,25.1847945 C80.1165107,23.7135608 79.1128655,22.6448111 77.8398272,22.6448111 Z M102.278152,33.6258119 L97.7949519,33.6258119 L97.7949519,21.2416901 L99.6644136,21.2416901 L99.6644136,25.9340338 L102.278152,25.9340338 C104.354357,25.9340338 106.390466,27.41889 106.390466,29.7805421 C106.390466,32.1409557 104.349345,33.6258119 102.278152,33.6258119 Z M102.327018,27.6566652 L99.6644136,27.6566652 L99.6644136,31.9031806 L102.327018,31.9031806 C103.722849,31.9031806 104.519751,30.7576493 104.519751,29.7805421 C104.519751,28.8220111 103.722849,27.6566652 102.327018,27.6566652 Z M113.883348,29.4362635 C112.532625,29.4362635 111.128023,28.8467793 110.550394,27.5402544 L112.209353,26.8529357 C112.566455,27.5402544 113.223022,27.7631686 113.917179,27.7631686 C114.886994,27.7631686 115.870591,27.187307 115.885627,26.1705706 L115.885627,26.0405373 C115.54732,26.2337296 114.823091,26.5198028 113.932215,26.5198028 C112.145451,26.5198028 110.324856,25.5476492 110.324856,23.7333754 C110.324856,22.073903 111.788348,21.0051533 113.433525,21.0051533 C114.691527,21.0051533 115.385684,21.566154 115.821724,22.2187973 L115.885627,22.2187973 L115.885627,21.2615047 L117.691186,21.2615047 L117.691186,26.0120538 C117.691186,28.2077586 116.032227,29.4362635 113.883348,29.4362635 Z M113.65781,22.6497647 C113.046351,22.6497647 112.194317,22.9494605 112.194317,23.6986998 C112.194317,24.6572309 113.256853,25.0250393 114.176548,25.0250393 C114.999763,25.0250393 115.385684,24.8454695 115.885627,24.6089328 C115.739027,23.4621631 114.740394,22.6497647 113.65781,22.6497647 Z M124.269386,29.1650512 L122.120507,23.7965344 L122.056605,23.7965344 L119.835053,29.1650512 L117.818991,29.1650512 L121.156957,21.6627502 L119.252412,17.4880627 L121.205824,17.4880627 L126.34935,29.1650512 L124.269386,29.1650512 Z M107.417918,21.2416901 L109.292392,21.2416901 L109.292392,33.6258119 L107.417918,33.6258119 L107.417918,21.2416901 Z" id="path46" fill="#000000" transform="translate(83.857940, 25.638673) scale(1, -1) translate(-83.857940, -25.638673) "></path>
            <path d="M10.6883141,32.4740886 C10.3938613,32.1694392 10.2234546,31.6951273 10.2234546,31.0808749 L10.2234546,9.17088647 C10.2234546,8.55663402 10.3938613,8.08232215 10.6883141,7.77767275 L10.7609875,7.7107985 L23.1831341,19.9834633 L23.1831341,20.2732517 L10.7609875,32.5459165 L10.6883141,32.4740886 Z" id="path64" fill="url(#linearGradient-1)" transform="translate(16.703294, 20.128358) scale(1, -1) translate(-16.703294, -20.128358) "></path>
            <path d="M27.3192553,15.890511 L23.1831341,19.9834633 L23.1831341,20.2732517 L27.3242673,24.366204 L27.4169886,24.3129523 L32.3211929,21.5550083 C33.7207831,20.7723318 33.7207831,19.4843832 32.3211929,18.696753 L27.4169886,15.9437627 L27.3192553,15.890511 Z" id="path78" fill="url(#linearGradient-2)" transform="translate(28.277010, 20.128357) scale(1, -1) translate(-28.277010, -20.128357) "></path>
            <path d="M27.4169886,28.6870978 L23.1831341,32.8716925 L10.6883141,20.5210078 C11.1531735,20.038027 11.9112327,19.9798217 12.77329,20.4628024 L27.4169886,28.6870978" id="path88" fill="url(#linearGradient-3)" transform="translate(19.052651, 26.500025) scale(1, -1) translate(-19.052651, -26.500025) "></path>
            <path d="M27.4169886,11.5738303 L12.77329,19.7981257 C11.9112327,20.2761528 11.1531735,20.2179474 10.6883141,19.7349666 L23.1831341,7.38923553 L27.4169886,11.5738303 Z" id="path104" fill="url(#linearGradient-4)" transform="translate(19.052651, 13.758797) scale(1, -1) translate(-19.052651, -13.758797) "></path>
        </g>
    </g>
</svg>