<?xml version="1.0" encoding="UTF-8"?>
<svg width="163px" height="46px" viewBox="0 0 163 46" version="1.1" xmlns="http://www.w3.org/2000/svg" xmlns:xlink="http://www.w3.org/1999/xlink">
    <!-- Generator: Sketch 50.2 (55047) - http://www.bohemiancoding.com/sketch -->
    <title>Fill 1</title>
    <desc>Created with Sketch.</desc>
    <defs></defs>
    <g id="Page-1" stroke="none" stroke-width="1" fill="none" fill-rule="evenodd">
        <path d="M36.5119436,5.33615216 C36.4971468,2.34337174 34.208876,-0.017881328 31.3252311,0.000102039479 C28.3874709,0.0185073042 26.0659988,2.32849987 26.0800636,5.21955033 C26.0943898,8.17167041 28.3854318,10.5304976 31.2224903,10.5142018 C34.6451977,10.4933179 36.5238647,7.74355024 36.5119436,5.33615216 Z M27.385852,37.8168808 C27.385403,38.0515148 27.4516072,38.115122 27.6685296,38.1142774 C29.6472724,38.1065707 31.6260651,38.1065179 33.6047581,38.1142247 C33.8289644,38.115122 33.9037996,38.0526761 33.9036,37.8042649 C33.8975633,31.0044177 33.8974136,24.2045704 33.9039991,17.4047759 C33.9042985,17.1434321 33.8267193,17.0850507 33.5924851,17.0861593 C31.6304056,17.0955024 29.6682263,17.0959775 27.7061467,17.085737 C27.4606374,17.0844173 27.3832079,17.1400538 27.3840061,17.4173918 C27.394034,20.8040925 27.3905417,24.190846 27.3905417,27.5775467 C27.3905417,30.9906933 27.392687,34.403787 27.385852,37.8168808 Z M122.575951,5.59470388 C122.575951,5.25751573 122.575707,5.25720304 122.254265,5.25720304 C120.298128,5.2570988 118.341991,5.25715092 116.385855,5.25720304 C116.061821,5.25720304 116.061478,5.25746361 116.061478,5.58891905 C116.061381,15.8802975 116.062359,26.1716239 116.056,36.4630024 C116.055805,36.7262384 116.118508,36.8013371 116.368051,36.7999821 C118.315971,36.7893505 120.263989,36.7941451 122.212006,36.794093 C122.575853,36.794093 122.575951,36.7939367 122.575951,36.4166716 C122.576,31.2840112 122.576,26.1513509 122.576,21.0186906 C122.576,15.8773791 122.576,10.7360154 122.575951,5.59470388 Z M141.960418,18.4721293 C141.291014,18.023026 140.653106,17.5120938 139.941441,17.1441804 C138.33889,16.3156631 136.603017,15.9456922 134.808529,15.8090568 C133.211306,15.6874037 131.651595,15.8583827 130.134408,16.3562317 C128.510067,16.8892682 127.118182,17.7652651 126.118929,19.1960335 C125.448997,20.1552777 125.141043,21.223461 125.083272,22.3799034 C125.030777,23.4315217 125.151859,24.4477941 125.652593,25.3926362 C126.417122,26.8350107 127.626567,27.7645539 129.142066,28.2760664 C130.302762,28.6678778 131.504293,28.93677 132.676067,29.298089 C133.343573,29.5039391 134.00881,29.7421279 134.636377,30.045733 C135.20918,30.322855 135.438417,30.8612198 135.393467,31.4966538 C135.349413,32.1185298 135.047896,32.5610388 134.471505,32.8286649 C133.588058,33.238835 132.670475,33.2578796 131.73907,33.0901714 C130.248314,32.8216485 128.999195,32.0890397 127.916424,31.0501355 C127.849262,30.9856688 127.779515,30.92384 127.695892,30.8468704 C126.409314,32.202674 125.141782,33.5384307 123.88,34.8681205 C123.913185,34.9251487 123.922629,34.9508931 123.939934,34.9691464 C123.982141,35.0137771 124.027145,35.0558756 124.07257,35.097341 C124.972267,35.9174703 125.99732,36.538766 127.123775,36.9906126 C129.428072,37.9149858 131.818788,38.2707655 134.293391,38.0515685 C135.568626,37.93862 136.808249,37.675056 137.976647,37.1380101 C141.114799,35.69553 142.446539,32.9456755 141.837437,29.6106624 C141.554808,28.063411 140.57497,26.9546591 139.284118,26.1099459 C138.075412,25.3190429 136.7136,24.9237497 135.330947,24.5695526 C134.305262,24.3067799 133.286118,24.0108244 132.280798,23.6790482 C131.715961,23.492612 131.409221,23.0475708 131.405,22.4298624 C131.400621,21.7929513 131.687366,21.3402078 132.268241,21.0761163 C132.828066,20.8216262 133.419862,20.6978629 134.030705,20.6981267 C135.004792,20.6985487 135.931291,20.9237071 136.775644,21.4131153 C137.319588,21.7283792 137.834304,22.0940241 138.343691,22.4251672 C139.591017,21.1774587 140.856069,19.9119716 142.136,18.6316077 C142.088728,18.5880321 142.031485,18.5197671 141.960418,18.4721293 Z M105.467255,34.7189523 L105.467255,34.9938592 C105.467255,35.738187 105.478674,36.4827715 105.460988,37.22674 C105.454881,37.4830631 105.545167,37.5396873 105.793453,37.5386605 C107.802631,37.5301387 109.811863,37.5307547 111.821095,37.5379932 C112.056635,37.5388659 112.143787,37.4820877 112.143575,37.238034 C112.137361,30.6244562 112.137202,24.0108783 112.144,17.3973518 C112.144212,17.1415421 112.055997,17.086766 111.808774,17.0878441 C109.799595,17.0966226 107.79031,17.0973927 105.781184,17.087074 C105.519993,17.0857393 105.460988,17.1642328 105.461466,17.4051036 C105.468795,21.0155992 105.466193,24.6260949 105.466087,28.2366418 C105.466034,28.9546854 105.32694,29.6474714 105.034042,30.3062726 C104.557652,31.3775625 103.841579,32.2195324 102.593722,32.4579904 C102.131459,32.5463405 101.643278,32.5554271 101.170286,32.5332497 C100.408433,32.4974168 99.6808353,32.2991039 99.2132608,31.6663303 C98.9305068,31.2836168 98.6951263,30.8481806 98.5374978,30.4036579 C98.2869281,29.6967544 98.2588332,28.9466769 98.2588332,28.2011683 C98.2587801,24.6077677 98.2563371,21.0143672 98.2640379,17.4209666 C98.264569,17.173422 98.2178328,17.0839938 97.9338573,17.0857393 C95.8273823,17.0986761 93.7206949,17.0982141 91.6142199,17.08615 C91.3373079,17.0845585 91.2795249,17.1630007 91.2800029,17.4174244 C91.288288,21.4728021 91.2873851,25.5281797 91.2846234,29.5836088 C91.2840392,30.4663911 91.3691735,31.3395222 91.5505418,32.2043881 C91.8516186,33.6400645 92.419251,34.9600284 93.5008223,36.009141 C95.6222741,38.0669131 98.203334,38.4979343 101.018765,37.8113087 C102.82889,37.3698661 104.31712,36.4219378 105.271919,34.8090991 C105.302032,34.758276 105.31993,34.7006765 105.343564,34.6462598 C105.384776,34.6704906 105.425989,34.6947214 105.467255,34.7189523 Z M76.9809304,22.3453206 C75.8480251,22.3115458 74.8032402,22.6247534 73.9166353,23.3046368 C72.1723988,24.6423123 71.4769304,26.3870709 71.7945455,28.4654959 C72.1491002,30.7857014 74.2316859,32.9881033 77.2161543,32.8510654 C78.7341699,32.781373 79.9953543,32.2511292 80.9064037,31.1188575 C82.1038032,29.630522 82.3932634,27.9370888 81.9653206,26.1415149 C81.3749964,23.664374 79.2619096,22.2786893 76.9809304,22.3453206 Z M46.0300126,19.3363777 C46.0884166,19.2593009 46.154147,19.1869845 46.2041853,19.1045054 C47.3871257,17.155334 49.1282292,16.1224726 51.3114156,15.8509119 C52.9032877,15.6529513 54.4325989,15.8592026 55.8365806,16.7309569 C56.8086639,17.3345202 57.5638626,18.148079 58.1172455,19.1647868 C58.15102,19.2268334 58.185626,19.288559 58.2224142,19.3487335 C58.2304162,19.3618917 58.2493299,19.3679359 58.2895476,19.3949475 C58.3429634,19.3214009 58.399185,19.2474799 58.4518733,19.171045 C59.6265518,17.4662621 61.1535768,16.2966309 63.1882071,15.9419492 C64.814789,15.6584606 66.434616,15.6859002 67.9817498,16.351617 C69.4751561,16.9942269 70.5805189,18.090258 71.3175314,19.5762198 C71.3638804,19.6697175 71.4142305,19.7610222 71.4903531,19.9059224 C71.6979886,19.6575221 71.8873858,19.4458685 72.0606232,19.2210032 C72.7452072,18.3325071 73.5484178,17.5834018 74.4862588,16.9855617 C75.527502,16.3219309 76.6568707,15.949812 77.8759757,15.8375933 C80.2262162,15.6213396 82.4014525,16.1096354 84.3413583,17.5307692 C86.2743013,18.9467681 87.4607749,20.9009674 88.1436961,23.2078159 C88.5637475,24.6267031 88.7303859,26.0823904 88.6540554,27.5584568 C88.5119426,30.3050335 87.7465075,32.8279217 85.9703304,34.9436561 C84.4914212,36.7052971 82.6344449,37.8118655 80.3857359,38.1588449 C78.3250732,38.4768335 76.3536273,38.1898681 74.5186824,37.1228277 C73.8021425,36.7061529 73.1805351,36.1732478 72.6716826,35.5043752 C72.6214365,35.438317 72.5620972,35.3795867 72.5069668,35.3174866 C72.4831687,35.3229425 72.4593187,35.3283448 72.4355207,35.3338006 C72.424505,35.4477309 72.4040324,35.5615543 72.4039804,35.6754846 C72.4022657,38.9824595 72.4026294,42.2894879 72.4025255,45.5964628 C72.4025255,45.9932399 72.4023177,45.9936143 72.0294987,45.9936143 C70.003286,45.9937213 67.9770214,45.9884259 65.9508087,45.9999794 C65.6835741,46.0014771 65.6218966,45.9214584 65.6222084,45.6540698 C65.6295349,39.1203527 65.6278202,32.586582 65.6281319,26.0528113 C65.6281319,25.1779548 65.5886937,24.3056121 65.3097679,23.4704975 C64.9603313,22.424264 64.2995454,21.7056471 63.1946502,21.5498889 C61.6229909,21.3283933 60.3526525,22.0626823 59.676746,23.5507836 C59.2845456,24.4141936 59.1529808,25.3344619 59.1521494,26.2771952 C59.1489798,29.9585891 59.1508504,33.6399829 59.1507465,37.3213232 C59.1507465,37.6844561 59.1503827,37.6848305 58.7952304,37.6848305 C56.7690178,37.684991 54.7428051,37.684991 52.7165404,37.684777 C52.3782235,37.6847235 52.3780156,37.6840817 52.3780156,37.3315395 C52.3776519,33.3382012 52.3786391,29.3448095 52.3760931,25.3514712 C52.3756254,24.5882984 52.2591812,23.8450234 51.9580682,23.1414367 C51.390448,21.8152449 50.3716,21.4325888 49.2146921,21.5280656 C47.6094141,21.6606099 46.6095318,22.6146293 46.1728529,24.3718843 C46.0392616,24.9092824 45.9614243,25.4766341 45.9587224,26.0307206 C45.9402763,29.8011726 45.9460959,33.5717317 45.9543057,37.3421837 C45.9548773,37.6081281 45.8949664,37.6926398 45.6255495,37.6911421 C43.5647309,37.6797491 41.5038084,37.6809259 39.4429378,37.6901259 C39.1956043,37.6912491 39.1208326,37.6231584 39.1210924,37.3619209 C39.1278993,30.4804755 39.128263,23.5990302 39.1200012,16.7176383 C39.1196375,16.4380543 39.1986699,16.3797519 39.4552525,16.3810891 C41.5160711,16.3915729 43.5770456,16.3914124 45.6378642,16.3811961 C45.8899262,16.3799124 45.9586184,16.4550636 45.9535263,16.7099894 C45.9380939,17.4851436 45.9473949,18.2608861 45.9487459,19.0363612 C45.9489018,19.1283612 45.9595537,19.2204148 45.9653214,19.3124684 C45.9868851,19.3204381 46.0084489,19.3284079 46.0300126,19.3363777 Z M0,41.6164421 C0.0459665507,41.8377326 0.0887520253,42.0597096 0.138429832,42.280155 C0.594914263,44.3058341 2.6656358,45.7217761 4.23030113,45.9411124 C4.30595773,45.951728 4.3791755,45.9799307 4.45350664,46 L5.30179362,46 C5.42935478,45.9728536 5.55638575,45.9425384 5.68463614,45.919089 C7.20699316,45.6403898 8.31761289,44.7654739 9.13154425,43.4997348 C9.60234352,42.7676278 10.0123842,41.9965969 10.4464421,41.241199 C15.488978,32.4653162 20.5309307,23.6890636 25.5728304,14.9128111 C25.7419046,14.6185317 25.9087521,14.3230905 26.08,14.0222094 C25.6771697,13.7234937 25.2957587,13.440675 24.8941478,13.1428571 C24.7845067,13.2605266 24.6844089,13.3704325 24.5816601,13.477856 C18.2554009,20.0929089 11.9288236,26.7076977 5.60256438,33.3228035 C4.2130703,34.7757152 2.814033,36.2198071 1.44102751,37.6880877 C0.800623855,38.3729262 0.362960792,39.1864195 0.140868657,40.1041147 C0.0873735589,40.3249826 0.046602766,40.5488609 0,40.7714189 L0,41.6164421 Z M157.782077,29.6143365 C157.782077,29.4509386 157.776912,29.2873772 157.783577,29.1242517 C157.789742,28.9743114 157.72898,28.9161223 157.572965,28.915523 C156.084351,28.910456 154.595626,28.9074594 153.127008,29.1962252 C152.211245,29.3762953 151.337916,29.6556354 150.636932,30.3036697 C150.037309,30.8579368 149.862355,31.5542984 150.008983,32.3182204 C150.181883,33.2194969 150.829104,33.7096362 151.676273,33.9619522 C152.531107,34.2165565 153.409101,34.2198256 154.283263,34.0747343 C155.816809,33.820239 156.908582,33.0108772 157.464882,31.5620897 C157.70543,30.9356311 157.785743,30.2807319 157.782077,29.6143365 Z M163,37.6322245 C162.898545,37.6235162 162.797193,37.6072678 162.695737,37.6071616 C160.855213,37.6056217 159.014638,37.6007366 157.174217,37.6120467 C156.912437,37.6136928 156.83605,37.5382918 156.845297,37.2686004 C156.865074,36.6941721 156.853002,36.1184694 156.848019,35.5433508 C156.847454,35.4805875 156.808002,35.4182489 156.786581,35.3556979 C156.730896,35.3842122 156.652763,35.3972215 156.622712,35.443471 C155.693024,36.8760372 154.311025,37.57047 152.744302,37.8992609 C150.601107,38.349012 148.516988,38.105711 146.567253,37.0513712 C144.944998,36.1742237 143.905327,34.7979959 143.574507,32.9138731 C143.33836,31.5690801 143.385364,30.2340573 143.939797,28.9654087 C144.457911,27.7798073 145.376863,26.9784857 146.429068,26.3296652 C147.701392,25.5450699 149.105531,25.1327007 150.548967,24.8574338 C152.013876,24.5780253 153.496816,24.4702868 154.984019,24.4198956 C155.454206,24.4039127 155.924495,24.3825136 156.394785,24.3804428 C156.581616,24.3796463 156.644904,24.3198034 156.64963,24.1222208 C156.686564,22.5618977 155.91566,21.5193459 154.364193,21.1072422 C152.729559,20.6731553 151.178862,20.9647767 149.702549,21.7640806 C149.422533,21.9156791 149.159623,22.1010488 148.878785,22.2505765 C148.813237,22.2854627 148.672998,22.2731437 148.623889,22.223071 C147.49653,21.073471 146.376979,19.9156937 145.256915,18.7586067 C145.240117,18.7413494 145.233593,18.7134723 145.211915,18.6695061 C145.287583,18.6046718 145.363045,18.535802 145.442668,18.4725607 C147.063227,17.1861769 148.906165,16.4320606 150.89936,16.0373734 C152.260348,15.7679475 153.632637,15.7105472 155.010321,15.8321446 C156.415076,15.9560784 157.786595,16.2281061 159.03945,16.9440972 C160.716258,17.9022742 161.69521,19.4217109 162.265671,21.2629824 C162.621765,22.4121577 162.799658,23.5957943 162.885343,24.796582 C162.91786,25.2523865 162.961473,25.7073945 163,26.1627741 L163,37.6322245 Z" id="Fill-1" fill="#FFFFFF"></path>
    </g>
</svg>