<?xml version="1.0" encoding="UTF-8"?>
<svg width="88px" height="93px" viewBox="0 0 88 93" version="1.1" xmlns="http://www.w3.org/2000/svg" xmlns:xlink="http://www.w3.org/1999/xlink">
    <!-- Generator: Sketch 50.2 (55047) - http://www.bohemiancoding.com/sketch -->
    <title>Group Copy</title>
    <desc>Created with Sketch.</desc>
    <defs>
        <polygon id="path-1" points="0 0.017 27.87386 0.017 27.87386 28.4598571 0 28.4598571"></polygon>
        <polygon id="path-3" points="0.540285714 0.477142857 28.9831429 0.477142857 28.9831429 28.9182857 0.540285714 28.9182857"></polygon>
        <filter x="-34.6%" y="-34.6%" width="169.2%" height="169.2%" filterUnits="objectBoundingBox" id="filter-5">
            <feOffset dx="0" dy="0" in="SourceAlpha" result="shadowOffsetOuter1"></feOffset>
            <feGaussianBlur stdDeviation="3" in="shadowOffsetOuter1" result="shadowBlurOuter1"></feGaussianBlur>
            <feColorMatrix values="0 0 0 0 0.145098039   0 0 0 0 0.909803922   0 0 0 0 0.745098039  0 0 0 0.500084918 0" type="matrix" in="shadowBlurOuter1" result="shadowMatrixOuter1"></feColorMatrix>
            <feMerge>
                <feMergeNode in="shadowMatrixOuter1"></feMergeNode>
                <feMergeNode in="SourceGraphic"></feMergeNode>
            </feMerge>
        </filter>
    </defs>
    <g id="Page-1" stroke="none" stroke-width="1" fill="none" fill-rule="evenodd">
        <g id="Group-Copy">
            <path d="M48,44.9992959 C48,47.2087661 46.2087661,49 43.9992959,49 C41.7898257,49 40,47.2087661 40,44.9992959 C40,42.7898257 41.7898257,41 43.9992959,41 C46.2087661,41 48,42.7898257 48,44.9992959" id="Fill-1" fill="#FEFEFE"></path>
            <path d="M72.0894068,40.6661811 C71.8390678,40.6661811 71.5887287,40.7322819 71.3594857,40.8644834 C70.9038123,41.12748 70.6309709,41.6000301 70.6309709,42.1274298 L70.6309709,47.8739766 C70.6309709,48.3999699 70.9038123,48.87252 71.3594857,49.1355166 C71.8165654,49.3999196 72.3622482,49.3999196 72.8193279,49.1355166 L77.795168,46.2622432 C78.2508413,45.9992466 78.5236828,45.5281029 78.5236828,45.0007032 C78.5236828,44.4733035 78.2508413,44.0007534 77.795168,43.7377568 L72.8193279,40.8644834 C72.5900849,40.7322819 72.3397458,40.6661811 72.0894068,40.6661811 M72.0894068,50.7430308 C71.5971671,50.7430308 71.1049274,50.6122357 70.6562861,50.3534582 C69.7590035,49.8359034 69.2245718,48.9090863 69.2245718,47.8739766 L69.2245718,42.1274298 C69.2245718,41.0909137 69.7590035,40.1640966 70.6562861,39.6465418 C71.5521623,39.1289869 72.6238385,39.1275805 73.5225275,39.6451354 L78.4983676,42.5184088 C79.3942438,43.03737 79.9300819,43.9641871 79.9300819,45.0007032 C79.9300819,46.0358129 79.3942438,46.96263 78.4983676,47.4815912 L73.5225275,50.3548646 C73.0738862,50.6136421 72.5816465,50.7430308 72.0894068,50.7430308 M74.0007032,32.4063991 C67.0559044,32.4063991 61.4063991,38.0559044 61.4063991,45.0007032 C61.4063991,51.9440956 67.0559044,57.5936009 74.0007032,57.5936009 C80.9440956,57.5936009 86.5936009,51.9440956 86.5936009,45.0007032 C86.5936009,38.0559044 80.9440956,32.4063991 74.0007032,32.4063991 M74.0007032,59 C66.2809785,59 60,52.7190215 60,45.0007032 C60,37.2809785 66.2809785,31 74.0007032,31 C81.7204279,31 88,37.2809785 88,45.0007032 C88,52.7190215 81.7204279,59 74.0007032,59" id="Fill-3" fill="#FEFEFE"></path>
            <g id="Group-7" transform="translate(0.000000, 31.000000)">
                <mask id="mask-2" fill="white">
                    <use xlink:href="#path-1"></use>
                </mask>
                <g id="Clip-6"></g>
                <path d="M10.15966,15.5212857 L15.11426,18.4398571 C15.56786,18.707 16.11106,18.707 16.56466,18.4398571 C17.01966,18.1712857 17.29126,17.6927143 17.29126,17.157 L17.29126,11.3198571 C17.29126,10.7841429 17.01966,10.3055714 16.56466,10.037 C16.11106,9.76985714 15.56786,9.76985714 15.11426,10.037 L10.15966,12.9555714 C9.70466,13.2241429 9.43306,13.7027143 9.43306,14.2384286 C9.43306,14.7741429 9.70466,15.2541429 10.15966,15.5212857 M15.83946,20.0712857 C15.34946,20.0712857 14.85946,19.9398571 14.41426,19.677 L9.45966,16.7584286 C8.56646,16.2327143 8.03306,15.2898571 8.03306,14.2384286 C8.03306,13.187 8.56646,12.2455714 9.45966,11.7184286 L14.41426,8.79985714 C15.30606,8.27271429 16.37146,8.27414286 17.26466,8.79985714 C18.15786,9.327 18.69126,10.2684286 18.69126,11.3198571 L18.69126,17.157 C18.69126,18.2084286 18.15786,19.1512857 17.26466,19.677 C16.81806,19.9398571 16.32946,20.0712857 15.83946,20.0712857 M13.93686,1.44557143 C7.02366,1.44557143 1.39986,7.18557143 1.39986,14.2384286 C1.39986,21.2927143 7.02366,27.0312857 13.93686,27.0312857 C20.85006,27.0312857 26.47386,21.2927143 26.47386,14.2384286 C26.47386,7.18557143 20.85006,1.44557143 13.93686,1.44557143 M13.93686,28.4598571 C6.25226,28.4598571 -0.00014,22.0798571 -0.00014,14.2384286 C-0.00014,6.397 6.25226,0.017 13.93686,0.017 C21.62146,0.017 27.87386,6.397 27.87386,14.2384286 C27.87386,22.0798571 21.62146,28.4598571 13.93686,28.4598571" id="Fill-5" fill="#FEFEFE" mask="url(#mask-2)"></path>
            </g>
            <g id="Group-10" transform="translate(30.000000, 0.000000)">
                <mask id="mask-4" fill="white">
                    <use xlink:href="#path-3"></use>
                </mask>
                <g id="Clip-9"></g>
                <path d="M13.4788571,10.844 L10.5617143,15.8997143 C10.2931429,16.3625714 10.2931429,16.9168571 10.5602857,17.3797143 C10.8288571,17.844 11.3074286,18.1211429 11.8431429,18.1211429 L17.6802857,18.1211429 C18.216,18.1211429 18.696,17.844 18.9631429,17.3797143 C19.2302857,16.9154286 19.2302857,16.3625714 18.9631429,15.8997143 L16.0445714,10.844 C15.776,10.3797143 15.2974286,10.1025714 14.7617143,10.1025714 C14.226,10.1025714 13.746,10.3797143 13.4788571,10.844 M17.6802857,19.5497143 L11.8431429,19.5497143 C10.7917143,19.5497143 9.84885714,19.0054286 9.32314286,18.094 C8.79742857,17.1825714 8.79742857,16.0954286 9.32314286,15.1854286 L12.2417143,10.1297143 C12.7674286,9.21828571 13.7102857,8.674 14.7617143,8.674 C15.8145714,8.674 16.756,9.21828571 17.2817143,10.1297143 L20.2002857,15.1854286 C20.726,16.0954286 20.726,17.1825714 20.2002857,18.094 C19.6745714,19.0054286 18.7317143,19.5497143 17.6802857,19.5497143 M14.7617143,1.90542857 C7.70742857,1.90542857 1.96885714,7.644 1.96885714,14.6982857 C1.96885714,21.7511429 7.70742857,27.4897143 14.7617143,27.4897143 C21.816,27.4897143 27.5545714,21.7511429 27.5545714,14.6982857 C27.5545714,7.644 21.816,1.90542857 14.7617143,1.90542857 M14.7617143,28.9182857 C6.92028571,28.9182857 0.540285714,22.5397143 0.540285714,14.6982857 C0.540285714,6.85685714 6.92028571,0.476857143 14.7617143,0.476857143 C22.6031429,0.476857143 28.9831429,6.85685714 28.9831429,14.6982857 C28.9831429,22.5397143 22.6031429,28.9182857 14.7617143,28.9182857" id="Fill-8" fill="#FEFEFE" mask="url(#mask-4)"></path>
            </g>
            <g id="Group-13" filter="url(#filter-5)" transform="translate(31.000000, 62.000000)" fill="#50E3C2">
                <path d="M13.2628263,1.37527778 C6.95193158,1.37527778 1.81624737,6.39472222 1.81624737,12.5627778 C1.81624737,18.7322222 6.95193158,23.7502778 13.2628263,23.7502778 C19.5751421,23.7502778 24.7094053,18.7322222 24.7094053,12.5627778 C24.7094053,6.39472222 19.5751421,1.37527778 13.2628263,1.37527778 Z M10.6509316,9.56972222 C10.1720368,9.56972222 9.74287895,9.81138889 9.50272105,10.2169444 C9.26398421,10.6225 9.26398421,11.1072222 9.50414211,11.5127778 L12.1146158,15.9336111 C12.5935105,16.7433333 13.9307211,16.7447222 14.4110368,15.9336111 L17.0229316,11.5127778 C17.2616684,11.1072222 17.2616684,10.6225 17.0229316,10.2169444 C16.7827737,9.81138889 16.3536158,9.56972222 15.8747211,9.56972222 L10.6509316,9.56972222 Z M13.2628263,17.8308333 C12.3220895,17.8308333 11.4794053,17.3558333 11.0076158,16.5586111 L8.39714211,12.1377778 C7.92677368,11.3405556 7.92677368,10.3891667 8.39714211,9.59194444 C8.86751053,8.79611111 9.71019474,8.31972222 10.6509316,8.31972222 L15.8747211,8.31972222 C16.8154579,8.31972222 17.6581421,8.79611111 18.1299316,9.59333333 C18.6003,10.3891667 18.6003,11.3405556 18.1299316,12.1377778 L15.5180368,16.5586111 C15.0476684,17.3544444 14.2049842,17.8308333 13.2628263,17.8308333 Z M13.2628263,1.37527778 C6.95193158,1.37527778 1.81624737,6.39472222 1.81624737,12.5627778 C1.81624737,18.7322222 6.95193158,23.7502778 13.2628263,23.7502778 C19.5751421,23.7502778 24.7094053,18.7322222 24.7094053,12.5627778 C24.7094053,6.39472222 19.5751421,1.37527778 13.2628263,1.37527778 Z M13.2628263,25.0002778 C6.24708947,25.0002778 0.5373,19.4211111 0.5373,12.5627778 C0.5373,5.70583333 6.24708947,0.126666667 13.2628263,0.126666667 C20.2785632,0.126666667 25.9883526,5.70583333 25.9883526,12.5627778 C25.9883526,19.4211111 20.2785632,25.0002778 13.2628263,25.0002778 Z" id="Fill-11"></path>
            </g>
        </g>
    </g>
</svg>