<?xml version="1.0" encoding="UTF-8"?>
<svg width="30px" height="24px" viewBox="0 0 30 24" version="1.1" xmlns="http://www.w3.org/2000/svg" xmlns:xlink="http://www.w3.org/1999/xlink">
    <!-- Generator: Sketch 50.2 (55047) - http://www.bohemiancoding.com/sketch -->
    <title>twitter [#154]</title>
    <desc>Created with Sketch.</desc>
    <defs></defs>
    <g id="Page-1" stroke="none" stroke-width="1" fill="none" fill-rule="evenodd">
        <path d="M9.435,24 C20.7555,24 26.9475,14.7654796 26.9475,6.75819203 C26.9475,6.49531907 26.9475,6.23392293 26.9295,5.9740036 C28.134,5.11745125 29.1735,4.05414489 30,2.83724984 C28.878,3.32755221 27.6855,3.64949775 26.466,3.79127193 C27.75,3.03366615 28.7115,1.84335376 29.172,0.438903274 C27.963,1.14482055 26.6415,1.642507 25.263,1.9098104 C22.932,-0.529886964 19.0335,-0.648032115 16.554,1.64693744 C14.9565,3.12670546 14.277,5.33306615 14.7735,7.43752665 C9.825,7.19237546 5.214,4.89149865 2.088,1.10642338 C0.4545,3.87545035 1.29,7.41685125 3.9945,9.19493577 C3.015,9.1668763 2.0565,8.90695697 1.2,8.43732999 L1.2,8.51412434 C1.2015,11.3983428 3.267,13.8823446 6.138,14.4538718 C5.232,14.6975462 4.281,14.7329897 3.36,14.5572488 C4.1655,17.0264825 6.477,18.7174349 9.1095,18.7661698 C6.93,20.4526918 4.2375,21.3683168 1.4655,21.3653631 C0.9765,21.3638863 0.4875,21.3358268 0,21.2782311 C2.8155,23.0563156 6.09,24 9.435,23.9955696" id="twitter-[#154]" fill="#FFFFFF"></path>
    </g>
</svg>